<?xml version="1.0" encoding="utf-8"?>
<!-- Generator: Adobe Illustrator 19.2.1, SVG Export Plug-In . SVG Version: 6.00 Build 0)  -->
<svg version="1.1" id="layer" xmlns="http://www.w3.org/2000/svg" xmlns:xlink="http://www.w3.org/1999/xlink" x="0px"
	y="0px" viewBox="0 0 652 652" style="enable-background:new 0 0 652 652;" xml:space="preserve">
	<style type="text/css">
		.st0 {
			fill: #FFEC00;
		}

		.st1 {
			fill: #8FBBE0;
		}

		.st2 {
			fill: #007BC1;
		}

		.st3 {
			fill: #1A171B;
		}

		#layer {
			transform-origin: 326px 326px;
			animation: scaleFade 1s ease-in-out forwards;
		}

		@keyframes scaleFade {
			0% {
				transform: scale(0);
				opacity: 0;
			}

			100% {
				transform: scale(1);
				opacity: 1;
			}
		}
	</style>
	<g>
		<g>
			<circle class="st0" cx="331" cy="320.3" r="245.9" />
			<circle class="st1" cx="331" cy="320.5" r="233.8" />
			<circle class="st2" cx="331" cy="320.3" r="225.6" />
		</g>
		<path class="st3" d="M331.1,78.6c65.4,0,126.1,24.1,170.9,67.8c22.3,21.8,39.8,47.5,51.8,76.4c12.7,30.2,19.1,63.1,19.1,97.6
		c0,32.7-6.4,64.3-19,94.1c-12.2,28.8-29.6,54.7-51.8,76.9c-22.2,22.2-48.1,39.7-76.9,51.8c-29.8,12.8-61.5,19.2-94.1,19.2H331
		c-32.7,0-64.3-6.4-94.1-19c-28.8-12.2-54.7-29.6-76.9-51.8c-22.2-22.2-39.7-48.1-51.8-76.9c-12.6-29.8-19.1-61.5-19.1-94.1
		s6.4-64.3,19-94.1c12.2-28.8,29.6-54.7,51.8-76.9c22.2-22.3,48.1-39.8,76.9-51.9C266.6,85,298.4,78.6,331.1,78.6L331.1,78.6
		 M331,70.5L331,70.5c-138.1,0-250,112-250,250.1c0.1,138,112,249.9,250,249.9h0.1c138,0,250-112,249.9-250.1
		C581,174.3,468.8,70.5,331,70.5" />
	</g>
	<path class="st3" d="M196.2,290.4l1.2-61.8c0-0.5-0.2-0.9-0.5-1.2c-0.9-0.9-1.8-1.8-2.8-2.7c-1.1-1.1-2.2-2.2-3.4-3.3l0,0
	c-0.3-0.3-0.7-0.5-1.2-0.5l-143.2-0.1c-0.5,0-0.9,0.2-1.2,0.5s-0.5,0.8-0.5,1.2l-1.2,61.9c0,0.5,0.3,1,0.6,1.3l-0.1-0.1
	c2,2,4.2,4.1,6.2,6.1c0.3,0.3,0.7,0.5,1.2,0.5h29.6l-2.3,119.3c0,0.5,0.2,1,0.6,1.3l-0.1-0.1c2,2,4.2,4.1,6.2,6.1
	c0.3,0.3,0.7,0.5,1.2,0.5h68c0.9,0,1.7-0.8,1.7-1.7l2.4-125.4h36c0.5,0,0.9-0.2,1.2-0.5C196,291.4,196.2,290.9,196.2,290.4
	 M148.7,284.4l-2.5,125.4h-58l2.3-119.3c0-0.5-0.2-0.9-0.5-1.2c-2-2-4.2-4.1-6.2-6.1l0,0c-0.3-0.3-0.7-0.5-1.2-0.5H52.9l1-52.2
	h133.5l-1,52.2h-36C149.5,282.6,148.7,283.4,148.7,284.4 M84.4,284c0-0.1,0-0.1,0-0.2C84.3,283.9,84.3,283.9,84.4,284 M84.3,283.7
	c0-0.1-0.1-0.1-0.1-0.2C84.2,283.6,84.2,283.6,84.3,283.7 M84.1,283.4l-0.1-0.1C84,283.3,84.1,283.3,84.1,283.4 M190.9,221.6
	l-0.1-0.1C190.9,221.5,190.9,221.5,190.9,221.6 M191.2,222.2v-0.1C191.2,222.1,191.2,222.1,191.2,222.2 M191.1,221.8
	c0,0,0-0.1-0.1-0.1C191,221.8,191.1,221.8,191.1,221.8 M44,285.9c-0.1,0-0.1-0.1-0.2-0.1C43.9,285.8,44,285.8,44,285.9 M44.4,286
	c-0.1,0-0.1,0-0.2-0.1C44.2,286,44.3,286,44.4,286 M44.5,286c0.1,0,0.2,0,0.3,0C44.7,286.1,44.6,286.1,44.5,286 M79.7,413.1
	c0.1,0,0.2,0,0.3,0C79.9,413.2,79.8,413.1,79.7,413.1 M79.1,412.9l0.1,0.1C79.2,412.9,79.1,412.9,79.1,412.9 M79.4,413
	c0.1,0,0.1,0,0.2,0.1C79.5,413.1,79.4,413.1,79.4,413" />
	<path class="st3"
		d="M334,281.7c0.4,0,0.8-0.2,1.2-0.5c0.3-0.3,0.5-0.8,0.5-1.2l1-51.2c0-0.5-0.2-0.9-0.5-1.2l0,0
	c-2-2-4.2-4.1-6.2-6.1l0,0c-0.3-0.3-0.8-0.5-1.2-0.5l-128-0.1c-0.9,0-1.7,0.8-1.7,1.7l-3.8,188.8c0,0.6,0.2,1.1,0.7,1.4
	c-0.1,0-0.1-0.1-0.2-0.1c0.6,0.6,1.2,1.2,1.8,1.8c1.4,1.4,2.9,2.8,4.4,4.3c0.3,0.3,0.7,0.5,1.2,0.5H331c0.4,0,0.8-0.2,1.2-0.5
	c0.3-0.3,0.5-0.8,0.5-1.2l1-51.2c0-0.5-0.2-1-0.5-1.3l-6.2-6l0,0l0,0l0,0c-0.3-0.3-0.7-0.5-1.2-0.5h-53.1l0.2-10.2h52.4
	c0.4,0,0.8-0.2,1.2-0.5c0.3-0.3,0.5-0.8,0.5-1.2l1-48.4c0-0.5-0.2-0.9-0.5-1.2l-6.2-6l0,0l0,0l0,0c-0.3-0.3-0.7-0.5-1.2-0.5h-46
	l0.2-8.7L334,281.7z M264.5,273.8l-0.4,18.3c0,0.6,0.3,1,0.7,1.4l-0.1-0.1c2,2,4.2,4.1,6.2,6.1c0.3,0.3,0.7,0.5,1.2,0.5h46
	l-0.8,38.7h-52.4c-0.9,0-1.7,0.8-1.7,1.7l-0.4,19.8c0,0.5,0.2,1,0.6,1.3l-0.1-0.1c2,2,4.2,4.1,6.2,6.1c0.3,0.3,0.7,0.5,1.2,0.5h53.1
	l-0.8,41.7h-118l3.5-179.3h118.1l-0.8,41.7h-59.6C265.4,272.1,264.6,272.8,264.5,273.8 M265.9,293.8c-0.1,0-0.2,0-0.3,0
	C265.6,293.8,265.8,293.8,265.9,293.8 M265.4,293.7c-0.1,0-0.1,0-0.2-0.1C265.3,293.7,265.4,293.7,265.4,293.7 M265.1,293.6
	c-0.1,0-0.1-0.1-0.2-0.1C265,293.5,265,293.6,265.1,293.6 M264.5,362c-0.1,0-0.2,0-0.4,0C264.3,362,264.4,362,264.5,362
	 M264.1,361.9c-0.1,0-0.2,0-0.2-0.1C263.9,361.9,264,361.9,264.1,361.9 M263.8,361.8c-0.1,0-0.1-0.1-0.2-0.1
	C263.6,361.7,263.7,361.8,263.8,361.8 M196.7,413.2c0.1,0,0.2,0,0.4,0C196.9,413.2,196.8,413.2,196.7,413.2 M196.1,412.9
	c0.1,0,0.1,0.1,0.2,0.1C196.2,413,196.2,413,196.1,412.9 M196.4,413.1c0.1,0,0.1,0,0.2,0.1C196.5,413.1,196.5,413.1,196.4,413.1
	 M327.3,359.2C327.3,359.2,327.3,359.1,327.3,359.2C327.3,359.1,327.3,359.2,327.3,359.2 M327.6,359.9
	C327.6,359.9,327.5,359.9,327.6,359.9C327.5,359.9,327.6,359.9,327.6,359.9 M327.5,359.5C327.5,359.5,327.4,359.4,327.5,359.5
	C327.4,359.4,327.5,359.5,327.5,359.5 M321.5,291.1C321.5,291.1,321.5,291,321.5,291.1C321.5,291,321.5,291.1,321.5,291.1
	 M321.8,291.7L321.8,291.7L321.8,291.7 M321.7,291.4C321.7,291.4,321.6,291.3,321.7,291.4C321.6,291.3,321.7,291.4,321.7,291.4" />
	<path class="st3" d="M448.1,295.2c-1.9-1.9-4-3.9-5.9-5.8c-0.1-0.1-0.2-0.2-0.3-0.3c0.4,0.4,0.8,0.8,1.2,1.2
	c-2.3-2.6-5.2-4.8-8.5-6.5c-6.7-3.4-15.2-5-25.5-5c-1,0-1.8,0-2.9,0c-1,0-1.8,0.8-1.8,1.7l-1.4,73.1c0,0.5,0.2,0.9,0.5,1.2l6.2,6.1
	c0.3,0.3,0.8,0.5,1.3,0.5c15.2-0.3,26.7-3,34.6-9.3c4-3.1,6.9-7.2,8.8-12c1.9-4.9,2.9-10.5,3.1-17.1c0-0.4,0-0.8,0-1.2
	c0-6.2-0.8-11.6-2.6-16.2C453.4,301.6,451,298.2,448.1,295.2 M448.7,299.7c-0.3-0.8-0.6-1.5-1-2.3
	C448.1,298.2,448.4,298.9,448.7,299.7 M447.8,317.3c-0.1,6.3-1.1,11.5-2.8,15.8c-2.6,6.5-7.1,11.1-13.7,14.2
	c-4.9,2.3-11.1,3.8-18.5,4.5l1.2-63.2c0.4,0,0.7,0,1.1,0c11.8,0,22.4,2.4,26.8,6.5c1.6,1.9,2.5,3.8,3.4,6c1.6,4.2,2.4,9.2,2.3,15
	C447.8,316.4,447.8,316.8,447.8,317.3 M444.8,292.6c0.5,0.6,0.9,1.3,1.3,1.9C445.8,293.9,445.3,293.2,444.8,292.6 M446.4,294.9
	c0.4,0.7,0.8,1.3,1.1,2C447.2,296.4,446.8,295.7,446.4,294.9 M444.7,292.4c-0.4-0.6-0.9-1.2-1.4-1.7
	C443.8,291.3,444.2,291.8,444.7,292.4" />
	<path class="st3" d="M526.4,321.4c0.1-25.9-9.3-48.9-26.7-65.8c-2-2-4.2-4.1-6.2-6.1c0,0,0.1,0.1,0.1,0.2
	c-6.7-6.5-14.5-12.2-23.4-16.7c-17.7-8.9-42.4-12.1-75.3-12.1h-55c-0.9,0-1.7,0.8-1.7,1.7l-3.8,188.8c0,0.5,0.2,1,0.6,1.4l-0.1-0.1
	c2,2,4.2,4.1,6.2,6.1c0.3,0.3,0.7,0.5,1.2,0.5h49.9c4.6,0,9,0,13.3-0.1c31.4-0.5,57.1-3.8,79.4-19c25.9-17.4,40.8-45.3,41.4-77
	C526.4,322.6,526.4,322,526.4,321.4 M516.6,317.3c-0.6,30.6-14.8,57.2-39.8,74c-21.4,14.6-46.1,17.7-77.5,18.4
	c-4.3,0.1-8.7,0.1-13.3,0.1h-41.8l3.5-179.3H401c32.7,0,56.9,3.2,73.7,11.8c7.2,3.7,13.7,8.1,19.3,13.1
	c14.7,15.9,22.6,36.7,22.6,60.1C516.7,316,516.7,316.6,516.6,317.3 M475.7,240.2c0.6,0.3,1.1,0.7,1.7,1.1
	C476.8,240.9,476.3,240.5,475.7,240.2 M478.6,242c0.5,0.4,1,0.7,1.6,1.1C479.6,242.7,479.1,242.3,478.6,242 M481.3,243.9
	c0.5,0.4,1,0.7,1.5,1.1C482.4,244.6,481.9,244.2,481.3,243.9 M484,245.9c0.5,0.4,1,0.8,1.4,1.2C484.9,246.7,484.4,246.3,484,245.9
	 M486.5,248c0.5,0.4,1,0.8,1.4,1.2C487.4,248.8,486.9,248.4,486.5,248 M488.9,250c0.5,0.5,1,0.9,1.5,1.4
	C489.9,251,489.4,250.5,488.9,250 M471.6,237.7c-1-0.5-2-1.1-3-1.6C469.6,236.6,470.6,237.1,471.6,237.7 M474.6,239.5
	c-0.6-0.4-1.3-0.7-1.9-1.1C473.2,238.7,473.9,239.1,474.6,239.5 M335.9,413.2c0.1,0,0.2,0,0.3,0C336.1,413.2,336,413.2,335.9,413.2
	 M335.3,413c0.1,0,0.1,0.1,0.2,0.1C335.4,413,335.3,413,335.3,413 M335.5,413.1c0.1,0,0.1,0,0.2,0.1
	C335.7,413.1,335.6,413.1,335.5,413.1" />
	<path class="st3"
		d="M598.1,257c0-0.3,0-0.5,0-0.8c0-8.5-2.6-15.7-7.9-20.9c-2-2-4.2-4.1-6.2-6.1c0.1,0.1,0.2,0.2,0.4,0.4
	c-0.2-0.2-0.4-0.4-0.6-0.6c-5.5-5.2-13.5-7.9-23.8-8c-0.3,0-0.7,0-1,0c-10.2,0.2-18.3,3.1-23.8,8.4c-5.6,5.3-8.4,12.8-8.6,21.4
	c0,0.3,0,0.5,0,0.7c0,8.6,2.8,16.2,8.3,21.4c-0.1-0.1-0.2-0.1-0.2-0.2c0.9,0.9,1.8,1.8,2.8,2.7c1.1,1.1,2.2,2.2,3.4,3.3
	c0.1,0.1,0.2,0.1,0.2,0.2c1.2,1.1,2.5,2.2,4.1,3.1h-14.6c-1,0-1.7,0.8-1.8,1.7l-2.5,124.3c0,0.5,0.2,0.9,0.5,1.2l6.2,6.1
	c0.3,0.3,0.8,0.5,1.2,0.5h56.7c0.9,0,1.7-0.8,1.7-1.7L595,290c0-0.5-0.1-0.9-0.5-1.2l-6.2-6.1c-0.3-0.3-0.8-0.5-1.2-0.5h-2.2
	c1.7-1,3.2-2.2,4.7-3.7C595,273.3,597.9,265.7,598.1,257 M540.5,273.1c-2.8-4.2-4.4-9.3-4.3-15.4V257c0.2-8,2.7-14.4,7.5-19
	c4.8-4.6,11.9-7.2,21.4-7.4c0.3,0,0.6,0,0.9,0c7.7,0,13.8,1.6,18.3,4.6c2.7,4.1,4.1,9.1,4.1,15.1v0.7c-0.2,8-2.7,14.6-7.5,19.2
	c-4.8,4.7-11.8,7.5-21.3,7.6c-0.3,0-0.6,0-0.9,0C551.1,277.9,545,276.2,540.5,273.1 M535.9,406.6l2.3-114.8h46.9l-2.3,114.8H535.9z" />
	<polygon class="st0" points="529.6,406.6 582.8,406.7 585.2,285.8 532.1,285.8 " />
	<path class="st0" d="M46.7,282.6h36c0.1,0,0.2,0.2,0.4,0.3c0.1,0.1,0.3,0.2,0.4,0.4c0.1,0.1,0.3,0.3,0.4,0.4
	c0.2,0.2,0.4,0.4,0.6,0.6v0.1l-2.4,125.4h64.3l2.5-125.4c0-1,0.8-1.7,1.8-1.7h36l1.2-58.3H48.1L46.7,282.6z M83,282.6h0.1
	C83.1,282.7,83.1,282.7,83,282.6 M83.4,282.7c0,0,0.1,0,0.1,0.1C83.4,282.8,83.4,282.8,83.4,282.7 M83.6,282.9l0.1,0.1
	C83.7,283,83.7,282.9,83.6,282.9" />
	<path class="st0"
		d="M198.8,409.6H323l0.9-47.8h-59.4l-1.8-1.7c0,0.1,0,0.2,0,0.4c0-0.1,0-0.2,0-0.4l0.4-19.8c0-0.9,0.8-1.7,1.8-1.7
	h52.3l0.9-44.8h-52.3c-0.6-0.6-1.2-1.2-1.8-1.7c0,0.1,0,0.2,0,0.3c0-0.1,0-0.2,0-0.3l0.4-18.3c0-1,0.8-1.7,1.8-1.7h59.6l0.9-47.8
	H202.3L198.8,409.6z M263.2,361.4l0.1,0.1C263.3,361.4,263.3,361.4,263.2,361.4 M263,360.9c0-0.1,0-0.1-0.1-0.2
	C262.9,360.8,262.9,360.9,263,360.9 M263.1,361.2c0-0.1-0.1-0.1-0.1-0.2C263.1,361.1,263.1,361.2,263.1,361.2 M264.6,293.2l0.1,0.1
	C264.6,293.3,264.6,293.2,264.6,293.2 M264.3,292.7v-0.1V292.7 M264.5,293c0,0,0-0.1-0.1-0.1C264.4,292.9,264.4,293,264.5,293" />
	<path class="st0" d="M468.6,236.1c-16.8-8.5-41.1-11.8-73.7-11.8h-53.1L338,409.7h48.2c4.6,0,8.9,0,13.3-0.1
	c31.3-0.5,56.1-3.8,77.5-18.4c24.9-16.8,39.1-43.4,39.8-74c0-0.6,0-1.2,0-1.8C516.7,280.8,499.6,251.9,468.6,236.1 M403.3,354.9
	c0.1,0.1,0.1,0.2,0.2,0.3C403.4,355.1,403.3,355,403.3,354.9 M403.1,354.5c0,0.1,0.1,0.2,0.1,0.2S403.1,354.6,403.1,354.5
	 M451.3,317.3c-0.1,6.6-1.1,12.3-3.1,17.1c-2,4.9-5,8.9-8.8,12c-7.8,6.3-19.3,9-34.6,9.3L403,354c0,0.2,0,0.3,0.1,0.5
	c0-0.2-0.1-0.3-0.1-0.5l1.4-73.1c0-1,0.8-1.7,1.8-1.7s1.8,0,2.9,0c10.3,0,18.9,1.6,25.5,5c6.7,3.4,11.5,8.7,14.1,15.7
	c1.7,4.7,2.6,10.1,2.6,16.2C451.3,316.4,451.3,316.8,451.3,317.3" />
	<path class="st0" d="M581.2,231.7c-4.7-4.4-11.8-7-21.5-7c-0.3,0-0.6,0-0.9,0c-9.5,0.2-16.6,2.9-21.4,7.4c-4.8,4.6-7.3,11-7.5,19
	v0.7c0,7.9,2.5,14.4,7.3,19c4.8,4.6,12,7.3,21.6,7.3c0.3,0,0.6,0,0.9,0c9.4-0.2,16.5-3,21.3-7.6c4.8-4.7,7.3-11.2,7.5-19.2v-0.7
	C588.3,242.3,585.9,236,581.2,231.7" />
</svg>